<?xml version="1.0" encoding="utf-8"?>
<!-- Generator: Adobe Illustrator 27.2.0, SVG Export Plug-In . SVG Version: 6.00 Build 0)  -->
<svg version="1.1" id="Laag_1" xmlns="http://www.w3.org/2000/svg" xmlns:xlink="http://www.w3.org/1999/xlink" x="0px" y="0px"
	 viewBox="0 0 197.19 24.7" style="enable-background:new 0 0 197.19 24.7;" xml:space="preserve">
<style type="text/css">
	.st0{fill:#FFFFFF;}
</style>
<g>
	<path class="st0" d="M19.64,19.81c0.01,2.17-1.08,1.06-2.02-0.15c0,0-12.03-14.22-12.03-14.22c-0.81-0.9-1.03-0.7-1.05,0.67
		c0.24,2.9-0.71,11.14,0.97,12.79c0.88,0.88,2.6,0.32,2.6,1.29c-0.17,1.36-1.91,0.12-3.83,0.32c-2.07-0.23-3.73,1.07-3.86-0.5
		c0-0.5,1.32-0.35,1.93-1.76c0.26-0.59,0.85-3.04,0.85-6.53c-0.17-2.07,0.58-8.45-0.88-9.8C1.14,0.76,0,1.61,0,0.64
		c0.01-1.21,1.47-0.37,2.17-0.47C3.28,0.18,4.19,0,4.86,0c1.37-0.4,10.79,12.52,11.88,13.35c1.11,1.28,1.55,1.45,1.58-0.44
		c0,0,0-7.46,0-7.46c0-1.81-0.15-3.01-1.14-3.66c-1.4-0.91-2.58-0.41-2.58-1.23c0.42-1.25,2.02-0.11,3.48-0.32
		c1.66,0.23,3.97-0.91,4.21,0.29c0,0.7-0.76,0.5-1.49,1.08c-0.91,0.7-0.97,1.67-1,3.37L19.64,19.81z M3.34,16.1
		c-0.18,1.7-0.5,2.87-1.35,3.66l0.06,0.12c1.78-0.54,1.79-2,1.38-3.78H3.34z M2.52,1.32c0.81-0.65,15.45,19.11,15.92,17.71
		c0-0.44-0.15-0.67-0.35-0.94L5.85,3.66C4.89,2.52,4.04,1.61,2.52,1.2V1.32z M17.09,1.08c0.82,0.29,1.26,1.08,1.64,2.43h0.15
		c0.2-1.46-0.03-2.5-1.73-2.55L17.09,1.08z"/>
	<path class="st0" d="M28.25,17.37c0,1.22,0.35,1.94,1.11,2.2c0.7,0.24,1.48,0.09,1.48,0.67c-0.38,1.09-1.98,0.08-3.78,0.28
		c-1.22,0-2.17,0.2-2.76,0.2c-1.11-0.24-0.3-0.99,0.59-1.26c1.48-0.7,0.49-9.18,0.76-10.55c0-1.22,0-1.85-0.59-2.31
		C24.27,6,23.16,6.45,23.16,5.74c0-0.26,0.17-0.46,0.54-0.46c0.89,0.27,6.07,0.06,5.89,0c0.3,0,0.46,0.13,0.46,0.39
		c0,0.57-0.83,0.37-1.3,0.85C27.73,7.56,28.46,15.89,28.25,17.37z M25.05,6.15c0.76,0.37,1,1.02,1,2.15v8.29
		c0,1.23,0.02,2.3-0.83,3.13l0.04,0.09c1.15-0.52,1.24-1.44,1.24-3.09V8.45c0-1.39-0.37-2.09-1.41-2.39L25.05,6.15z"/>
	<path class="st0" d="M44.88,6.37c0.48,0,0.35-0.67,0.74-0.67c0.43,0,0.39,0.33,0.41,0.98c0.19,2.99,0.92,6.1-1.33,2.02
		c-9.16-10.19-14.13,9.68-3.94,10.68c2.06,0.23,4.16-1.76,5.48-2.91c0.77,0.41-0.14,1.25-1.15,2.35c-4.56,4.49-13.05,1.6-12.66-5.35
		C32.34,5.94,39.96,3.17,44.88,6.37z M43.1,6.63c0.85,0.54,1.7,1.3,2.37,2.57l0.11-0.07c-0.17-1.54-0.74-2.09-2.41-2.61L43.1,6.63z
		 M38.51,20.48c-6.02-1.68-6.8-10.03-2.2-13.92l-0.04-0.09c-5.23,3.46-4.46,13.19,2.22,14.11L38.51,20.48z"/>
	<path class="st0" d="M64.74,12.8c0.36,10.26-16.37,11.13-16.25,0.35C48.33,2.82,64.71,2.13,64.74,12.8z M56.3,6.04
		c-7.59-0.32-5.86,14.54,0.59,13.92C64.73,20.24,62.6,5.44,56.3,6.04z M62.34,13.89c0,2.54-0.78,4.37-2.48,5.61l0.07,0.09
		c4.87-2.44,3.51-12.81-2-13.77l-0.07,0.09C60.45,6.8,62.34,9.78,62.34,13.89z M54.34,20.39c-5.45-2.39-6.41-9.58-2.52-13.33
		l-0.07-0.11c-4.57,3.7-3.54,11.79,2.52,13.53L54.34,20.39z"/>
	<path class="st0" d="M70.96,17.48c-0.65,3.28,4.32,1.87,5.59,0.74c0.94-0.8,0.91-1.54,1.35-1.54c0.17,0,0.33,0.17,0.33,0.43
		c-0.07,1.65-1.41,3.88-3.72,3.61c-1.35-0.14-6.48-0.26-7.52,0c-1.1-0.2-0.34-0.92,0.5-1.24c0.63-0.39,0.87-1.04,0.87-2.04V8.91
		c0-1.07-0.04-1.72-0.61-2.24c-0.78-0.72-1.87-0.22-1.87-0.94c0.4-1.03,1.53-0.09,3.37-0.28c2.12,0.18,3.19-0.72,3.5,0.22
		c0,0.54-0.65,0.37-1.2,0.87c-0.59,0.52-0.59,1.15-0.59,2.15V17.48z M67.77,6.15c0.76,0.37,1.02,1.02,1.02,2.15v8.29
		c0,1.23,0.02,2.3-0.83,3.13l0.02,0.09c1.15-0.52,1.26-1.44,1.26-3.09V8.45c0-1.39-0.37-2.09-1.41-2.39L67.77,6.15z M73.88,19.89
		c1.61,0.28,3.05-0.33,3.52-1.87l-0.04-0.07c-0.85,0.94-1.89,1.52-3.52,1.83L73.88,19.89z"/>
	<path class="st0" d="M83.38,10.96c-0.1,1.01,0.9,0.94,1.64,0.92c0.92,0,1.51-0.17,1.92-0.74c0.44-0.59,0.42-1.25,0.98-1.25
		c0.66,0.3,0.11,0.81,0.22,1.92c-0.18,2.18,0.67,3.06-0.2,3.45c-0.55,0-0.33-0.55-0.59-1.25c-0.3-1.21-1.83-1.17-3.06-1.14
		c-0.81,0-0.92,0.33-0.92,1.22v3.41c-0.55,3.38,4.35,1.84,5.64,0.74c0.94-0.81,0.94-1.55,1.38-1.55c0.76,0.44-0.03,1.86-0.55,2.82
		c-1.63,2.1-4.22,0.92-6.97,1.05c-2.2-0.2-3.56,0.77-3.98-0.24c0-0.46,0.5-0.48,1.01-0.81c0.63-0.39,0.87-1.05,0.87-2.06V8.91
		c0-1.07-0.02-1.73-0.59-2.25c-0.79-0.7-1.9-0.22-1.9-0.94c0-0.28,0.2-0.46,0.57-0.46c0.74,0.29,9.12,0.09,9.97,0.02
		c0.72,0,0.87,0.04,0.87,0.77c-0.01,0.68,0.02,2.42,0.02,2.32c0,0.33-0.04,0.44-0.35,0.44c-0.59,0-0.26-0.63-0.57-1.27
		c-0.46-0.94-1.49-1.25-3.65-1.25c-1.29,0-1.77,0.31-1.77,1.27V10.96z M86.97,6.04c1.07,0.2,1.71,0.46,2.1,1.2l0.11,0.04
		c0-1.42-0.93-1.47-2.23-1.33L86.97,6.04z M86.2,12.47c0.39,0.09,0.7,0.22,1.01,0.46h0.07l-0.07-1.29l-0.11,0.02
		c-0.26,0.33-0.52,0.55-0.92,0.68L86.2,12.47z M86.42,19.91c1.62,0.22,3.08-0.26,3.54-1.86l-0.07-0.09c-0.87,1.09-1.99,1.6-3.5,1.86
		L86.42,19.91z M81.2,8.3v8.33c0,1.23,0.02,2.31-0.83,3.15c1.07-0.24,1.29-1.18,1.29-3.02V8.45c0-1.4-0.37-2.1-1.42-2.4
		C80.91,6.48,81.2,7.2,81.2,8.3z"/>
	<path class="st0" d="M107.35,17.37c0.58,3.47-5.58,10.5-7.6,5.83c0.3-4.97,1.4-1.49,3.19-0.64c0.81,0,1.05-1.03,1.05-3.03V4.66
		c0-1.33-0.03-2.19-0.75-2.86c-1-0.92-2.41-0.28-2.41-1.19c0.47-1.3,2.02-0.12,4.44-0.36c2.4,0.21,3.72-0.91,3.94,0.31
		c0,0.64-0.69,0.47-1.25,1.08c-0.61,0.64-0.61,1.5-0.61,2.75V17.37z M103.25,1.17c0.97,0.5,1.28,1.28,1.28,2.72
		c-0.08,2.76,0.2,14.75-0.19,17.29l0.14,0.08c1.33-2.4,0.36-14.4,0.64-17.18c0-1.78-0.47-2.69-1.8-3.05L103.25,1.17z M100.33,23.42
		c0.34,1.08,0.86,0.03,0.78-1.61C100.62,20.52,100.32,21.96,100.33,23.42z"/>
	<path class="st0" d="M124.37,18.37c0.3,0.7,0.57,1.13,1.3,1.39c0.57,0.2,0.8,0.15,0.8,0.61c-0.08,0.95-2,0.04-3.28,0.22
		c-1.83,0-2.78,0.22-2.96,0.22c-0.2,0-0.33-0.2-0.33-0.46c0-0.61,1.57-0.39,1.57-1.7c0.05-0.59-0.62-1.84-0.83-2.41
		c-0.36-0.96-0.76-0.94-1.74-0.94c0,0-2.83,0-2.83,0c-1.73-0.32-1.8,1.43-2.28,2.59c-0.44,1.05-0.05,1.72,1.33,1.98
		c0.89-0.01,1.21,0.86,0.37,0.96c-0.39-0.11-4.05-0.33-4.7-0.02c-0.3,0-0.48-0.15-0.48-0.44c0-0.46,0.48-0.41,0.91-0.7
		c1.29-0.72,5.98-12.93,6.83-14.35c0.14-0.46,0.58-0.37,0.76,0.09C118.83,5.41,124.37,18.37,124.37,18.37z M117.59,9.19
		c-0.11,0-0.24,0.11-0.33,0.33c-0.11,0.35-1.84,4.1-1.78,4.37c0.02,0.64,2.98,0.21,3.48,0.33c0.9-0.06,0.77-0.17,0.5-0.94
		C119.27,13.02,117.91,9.18,117.59,9.19z M111.32,20.09l0.07,0.07c1.15-0.05,1.64-0.92,1.59-2.28l-0.09-0.04
		C112.48,18.81,112.15,19.57,111.32,20.09z M121.48,19.78c1.06-0.54,0.92-1.77,0.57-2.72c0,0-3.61-8.59-3.61-8.59
		c-0.09-0.22-0.15-0.3-0.28-0.3c-0.45,0.08-0.2,0.58-0.02,0.91c0,0,3.46,8.29,3.46,8.29c0.36,0.9,0.53,1.74-0.15,2.37L121.48,19.78z
		"/>
	<path class="st0" d="M141.39,20.09c0.01,1.61-0.8,0.79-1.5-0.11c0,0-8.94-10.57-8.94-10.57C130.74,9.15,130.5,9,130.43,9
		c-0.57,0.18-0.13,5.44-0.26,5.98c0,2.28,0.02,3.74,0.72,4.44c0.65,0.65,1.94,0.24,1.94,0.96c-0.18,1.03-1.39,0.08-2.85,0.24
		c-1.57-0.18-2.71,0.82-2.87-0.37c0-0.37,0.98-0.26,1.44-1.31c0.65-0.84,0.7-7.45,0.63-9.46c0-1.33-0.2-2.22-0.65-2.67
		c-0.87-0.87-1.72-0.24-1.72-0.96c0-0.37,0.13-0.48,0.43-0.48c1.75,0.52,3.4-0.83,4.52,0.94c0,0,7.48,8.98,7.48,8.98
		c0.83,0.95,1.15,1.08,1.17-0.33c0,0,0-5.55,0-5.55c0-1.35-0.11-2.24-0.85-2.72c-1.04-0.67-1.91-0.3-1.91-0.91
		c0.31-0.93,1.5-0.08,2.59-0.24c1.27,0.18,2.88-0.69,3.13,0.22c0,0.52-0.57,0.37-1.11,0.8c-0.67,0.52-0.72,1.24-0.74,2.5
		L141.39,20.09z M129.28,17.33c-0.13,1.26-0.37,2.13-1,2.72l0.04,0.09c1.32-0.4,1.33-1.48,1.02-2.81H129.28z M128.67,6.34
		c0.63-0.46,11.38,14.1,11.83,13.16c0-0.33-0.11-0.5-0.26-0.7l-9.09-10.72c-0.72-0.85-1.35-1.52-2.48-1.83V6.34z M139.5,6.17
		c0.61,0.22,0.94,0.8,1.22,1.81h0.11c0.15-1.09-0.02-1.86-1.28-1.89L139.5,6.17z"/>
	<path class="st0" d="M144.94,16.3c-0.14-0.5-0.17-0.87,0.37-0.89c0.43,0,0.3,0.7,1.07,2.02c0.96,1.65,2.33,2.57,3.68,2.57
		c1.65,0,2.98-1.09,2.98-2.87c-0.13-3.71-8.59-3.05-7.87-7.81c0-2.22,1.67-4.22,4.28-4.22c1.67,0,2.46,0.8,3.26,0.8
		c0.69-0.03,1.24-0.73,1.3,0.2c-0.18,1.14,0.24,2.57,0.26,3.63c0,0.26-0.11,0.39-0.33,0.39c-0.63,0-0.24-0.61-1.11-2.04
		c-1.11-2.31-5.78-2.95-5.92,0.13c-0.28,2.47,5.12,3.03,6.46,4.5c3.88,5.34-1.16,10.09-7,7.5c-0.65-0.09-0.59-0.13-0.74-0.78
		L144.94,16.3z M145.88,19.13c-0.05,0.4,0.75,0.74,0.63,0.2c-0.09-0.13-1.12-3.67-1.26-3.61C144.91,15.62,145.92,18.99,145.88,19.13
		z M151.08,6.04c1,0.48,1.65,1.13,2.31,2.28h0.11c-0.15-1.46-0.74-2.09-2.41-2.35V6.04z M146.25,6.91
		c-3.95,7.08,8.24,5.58,7.24,10.94l0.13,0.04c1.64-5.95-10.56-4.12-7.29-10.94L146.25,6.91z"/>
	<path class="st0" d="M156.82,16.3c-0.14-0.5-0.17-0.87,0.37-0.89c0.43,0,0.3,0.7,1.07,2.02c0.96,1.65,2.33,2.57,3.68,2.57
		c1.65,0,2.98-1.09,2.98-2.87c-0.13-3.71-8.59-3.05-7.87-7.81c0-2.22,1.67-4.22,4.28-4.22c1.67,0,2.46,0.8,3.26,0.8
		c0.69-0.03,1.24-0.73,1.3,0.2c-0.18,1.14,0.24,2.57,0.26,3.63c0,0.26-0.11,0.39-0.33,0.39c-0.63,0-0.24-0.61-1.11-2.04
		c-1.11-2.31-5.78-2.95-5.92,0.13c-0.28,2.47,5.12,3.03,6.46,4.5c3.88,5.34-1.16,10.09-7,7.5c-0.65-0.09-0.59-0.13-0.74-0.78
		L156.82,16.3z M157.76,19.13c-0.05,0.4,0.75,0.74,0.63,0.2c-0.09-0.13-1.12-3.67-1.26-3.61C156.79,15.62,157.8,18.99,157.76,19.13z
		 M162.95,6.04c1,0.48,1.65,1.13,2.31,2.28h0.11c-0.15-1.46-0.74-2.09-2.41-2.35V6.04z M158.13,6.91
		c-3.95,7.08,8.24,5.58,7.24,10.94l0.13,0.04c1.64-5.95-10.56-4.12-7.29-10.94L158.13,6.91z"/>
	<path class="st0" d="M172.72,11.04c-0.1,1.01,0.9,0.93,1.63,0.91c0.91,0,1.5-0.17,1.91-0.74c0.43-0.59,0.41-1.24,0.98-1.24
		c0.66,0.3,0.11,0.81,0.22,1.91c-0.18,2.17,0.67,3.04-0.2,3.44c-0.54,0-0.33-0.54-0.59-1.24c-0.35-0.91-0.94-1.13-2.2-1.13
		c-0.95-0.02-1.92-0.17-1.76,1.22c0,0,0,3.39,0,3.39c-0.54,3.36,4.33,1.83,5.61,0.74c1.01-0.86,1.24-2.31,1.67-1.11
		c-0.25,4.28-4.17,3.66-7.79,3.41c-2.19-0.2-3.54,0.77-3.96-0.24c0-0.46,0.5-0.48,1-0.8c0.63-0.39,0.87-1.04,0.87-2.04
		c-0.25-1.55,0.62-9.75-0.59-10.76c-0.78-0.7-1.89-0.22-1.89-0.94c0-0.28,0.2-0.46,0.57-0.46c0.73,0.29,9.07,0.08,9.92,0.02
		c0.72,0,0.87,0.04,0.87,0.76c-0.01,0.68,0.02,2.41,0.02,2.31c0,0.33-0.04,0.44-0.35,0.44c-0.59,0-0.26-0.63-0.57-1.26
		c0.02-1.1-5.51-2.28-5.39,0.02C172.72,7.65,172.72,11.04,172.72,11.04z M176.29,6.15c1.07,0.2,1.7,0.46,2.09,1.2l0.11,0.04
		c0-1.41-0.93-1.46-2.22-1.33L176.29,6.15z M175.53,12.54c0.39,0.09,0.7,0.22,1,0.46h0.07l-0.07-1.28l-0.11,0.02
		c-0.26,0.33-0.52,0.54-0.91,0.67L175.53,12.54z M175.75,19.94c1.61,0.22,3.07-0.25,3.52-1.85L179.21,18
		c-0.87,1.09-1.98,1.59-3.48,1.85L175.75,19.94z M170.55,8.39v8.29c0,1.23,0.02,2.3-0.83,3.13c1.07-0.24,1.28-1.17,1.28-3V8.54
		c0-1.39-0.37-2.09-1.41-2.39C170.27,6.58,170.55,7.3,170.55,8.39z"/>
	<path class="st0" d="M195.21,20.09c0.01,1.61-0.8,0.79-1.5-0.11c0,0-8.94-10.57-8.94-10.57C184.55,9.15,184.31,9,184.25,9
		c-0.57,0.18-0.13,5.44-0.26,5.98c0,2.28,0.02,3.74,0.72,4.44c0.65,0.65,1.94,0.24,1.94,0.96c-0.18,1.03-1.39,0.08-2.85,0.24
		c-1.57-0.18-2.71,0.82-2.87-0.37c0-0.37,0.98-0.26,1.44-1.31c0.65-0.84,0.7-7.45,0.63-9.46c0-1.33-0.2-2.22-0.65-2.67
		c-0.87-0.87-1.72-0.24-1.72-0.96c0-0.37,0.13-0.48,0.43-0.48c1.75,0.52,3.4-0.83,4.52,0.94c0,0,7.48,8.98,7.48,8.98
		c0.83,0.95,1.15,1.08,1.17-0.33c0,0,0-5.55,0-5.55c0-1.35-0.11-2.24-0.85-2.72c-1.04-0.67-1.91-0.3-1.91-0.91
		c0.31-0.93,1.5-0.08,2.59-0.24c1.27,0.18,2.88-0.69,3.13,0.22c0,0.52-0.57,0.37-1.11,0.8c-0.67,0.52-0.72,1.24-0.74,2.5
		C195.34,9.06,195.21,20.09,195.21,20.09z M183.09,17.33c-0.13,1.26-0.37,2.13-1,2.72l0.04,0.09c1.32-0.4,1.33-1.48,1.02-2.81
		H183.09z M182.48,6.34c0.63-0.46,11.38,14.1,11.83,13.16c0-0.33-0.11-0.5-0.26-0.7l-9.09-10.72c-0.72-0.85-1.35-1.52-2.48-1.83
		V6.34z M193.32,6.17c0.61,0.22,0.94,0.8,1.22,1.81h0.11c0.15-1.09-0.02-1.86-1.28-1.89L193.32,6.17z"/>
</g>
</svg>
